#!OML:ASF X:\für Bonn\!DataBase\2005_08_10_Bjorn_Final\c3d\bjorn.ASF
:FULLY-SPECIFIED
:DEGREES
673
root -0.178999 1.63768 10.3201 -2434.5 -1.60407 181.77
lowerback 2.36401 1.95848 -3.35025
upperback 4.09155 2.34343 -3.55335
thorax 2.8979 0.976328 -1.78857
lowerneck -17.6092 -4.68814 -0.285052
upperneck 10.587 -6.65098 3.53918
head 6.213 -2.84376 0.498784
rclavicle -6.12257e-014 6.83819e-014
rhumerus -428.498 51.5919 253.473
rradius 111.376
rwrist -32.4097
rhand 7.92841 8.88453
rfingers 7.12502
rthumb 33.159 -18.082
lclavicle -6.12257e-014 6.83819e-014
lhumerus -73.5558 -67.2613 115.365
lradius 110.157
lwrist 34.4498
lhand -4.21246 -12.2053
lfingers 7.12502
lthumb 21.5499 736.616
rfemur -192.56 -167.207 190.498
rtibia 32.7216
rfoot 14.924 8.3568
rtoes -8.8826
lfemur 181.293 178.081 162.866
ltibia 18.8178
lfoot 10.177 5.53887
ltoes -11.5032
674
root -0.176569 1.63729 10.3186 -2434.35 -1.71205 181.795
lowerback 2.22385 1.93736 -3.46844
upperback 4.04576 2.3234 -3.58913
thorax 2.92611 0.964219 -1.75597
lowerneck -17.6191 -4.68919 -0.299718
upperneck 10.6108 -6.64823 3.51771
head 6.22185 -2.8449 0.494009
rclavicle 7.95139e-016 6.36111e-015
rhumerus -428.425 51.5912 253.54
rradius 111.38
rwrist -32.7066
rhand 8.08981 8.78409
rfingers 7.12502
rthumb 33.3124 -18.1497
lclavicle 7.95139e-016 6.36111e-015
lhumerus -73.532 -67.2225 115.327
lradius 110.134
lwrist 34.4302
lhand -4.20166 -12.2825
lfingers 7.12502
lthumb 21.5603 736.537
rfemur -192.485 -167.008 190.388
rtibia 32.4364
rfoot 14.9658 8.61686
rtoes -9.09761
lfemur 181.052 178 162.773
ltibia 18.9749
lfoot 10.1204 5.61561
ltoes -11.5345
675
root -0.174731 1.63629 10.3094 -2434.23 -1.79469 181.817
lowerback 2.10994 1.92076 -3.54764
upperback 4.00688 2.30786 -3.62758
thorax 2.94846 0.955225 -1.74863
lowerneck -17.6334 -4.7019 -0.345009
upperneck 10.6223 -6.66142 3.56442
head 6.23142 -2.84828 0.514166
rclavicle 3.65764e-014 -2.55438e-014
rhumerus -428.36 51.5869 253.58
rradius 111.36
rwrist -32.9827
rhand 8.23903 8.69496
rfingers 7.12502
rthumb 33.4543 -18.2083
lclavicle 3.65764e-014 -2.55438e-014
lhumerus -73.5591 -67.1989 115.317
lradius 110.129
lwrist 34.4024
lhand -4.2099 -12.326
lfingers 7.12502
lthumb 21.5524 736.495
rfemur -192.408 -166.846 190.293
rtibia 32.1845
rfoot 14.9846 8.86761
rtoes -9.42308
lfemur 180.832 177.936 162.705
ltibia 19.1368
lfoot 10.037 5.72852
ltoes -11.6389
676
root -0.172787 1.63579 10.3086 -2434.1 -1.87346 181.85
lowerback 1.98704 1.90344 -3.60487
upperback 3.97455 2.29176 -3.68285
thorax 2.98428 0.946193 -1.77069
lowerneck -17.6808 -4.71257 -0.338416
upperneck 10.6498 -6.68083 3.58433
head 6.24898 -2.85363 0.51614
rclavicle -4.37326e-014 4.97956e-014
rhumerus -428.258 51.5549 253.638
rradius 111.364
rwrist -33.237
rhand 8.39095 8.60148
rfingers 7.12502
rthumb 33.5987 -18.2705
lclavicle -4.37326e-014 4.97956e-014
lhumerus -73.5524 -67.2191 115.254
lradius 110.14
lwrist 34.3937
lhand -4.20701 -12.354
lfingers 7.12502
lthumb 21.5552 736.466
rfemur -192.321 -166.675 190.201
rtibia 31.9356
rfoot 14.9917 9.13561
rtoes -9.60556
lfemur 180.608 177.819 162.647
ltibia 19.2905
lfoot 9.99079 5.75922
ltoes -12.0252
677
root -0.17081 1.63558 10.3085 -2433.96 -1.96735 181.872
lowerback 1.85333 1.88648 -3.69957
upperback 3.93196 2.27719 -3.72372
thorax 3.01354 0.937173 -1.75682
lowerneck -17.6961 -4.71293 -0.347425
upperneck 10.675 -6.68117 3.58764
head 6.26002 -2.85322 0.51794
rclavicle 1.51076e-014 -2.01766e-014
rhumerus -428.204 51.5403 253.671
rradius 111.352
rwrist -33.4602
rhand 8.5137 8.55387
rfingers 7.12502
rthumb 33.7153 -18.2926
lclavicle 1.51076e-014 -2.01766e-014
lhumerus -73.5606 -67.1881 115.233
lradius 110.118
lwrist 34.3252
lhand -4.15535 -12.4146
lfingers 7.12502
lthumb 21.6048 736.4
rfemur -192.244 -166.609 190.089
rtibia 31.6954
rfoot 15.0182 9.27084
rtoes -9.40447
lfemur 180.374 177.694 162.574
ltibia 19.4469
lfoot 9.92528 5.83856
ltoes -12.37
678
root -0.169344 1.63525 10.3064 -2433.84 -2.04628 181.911
lowerback 1.74372 1.86269 -3.76811
upperback 3.90376 2.25236 -3.76795
thorax 3.0453 0.92346 -1.76173
lowerneck -17.7209 -4.71373 -0.341545
upperneck 10.6799 -6.68444 3.59302
head 6.26574 -2.85341 0.517821
rclavicle 2.8625e-014 -9.14409e-015
rhumerus -428.127 51.5457 253.7
rradius 111.353
rwrist -33.6887
rhand 8.59179 8.44865
rfingers 7.12502
rthumb 33.7895 -18.3816
lclavicle 2.8625e-014 -9.14409e-015
lhumerus -73.5257 -67.1744 115.141
lradius 110.127
lwrist 34.3076
lhand -4.12265 -12.4702
lfingers 7.12502
lthumb 21.6362 736.341
rfemur -192.124 -166.515 189.982
rtibia 31.4412
rfoot 15.0331 9.41282
rtoes -9.23673
lfemur 180.198 177.646 162.505
ltibia 19.5438
lfoot 9.85448 6.01195
ltoes -12.6347
679
root -0.167852 1.63456 10.3063 -2433.73 -2.09425 181.95
lowerback 1.63272 1.83798 -3.82242
upperback 3.87139 2.22802 -3.78385
thorax 3.07288 0.911091 -1.74525
lowerneck -17.7494 -4.72623 -0.398684
upperneck 10.7039 -6.6944 3.62991
head 6.28163 -2.85645 0.536589
rclavicle 1.11319e-014 8.94531e-016
rhumerus -428.097 51.5476 253.739
rradius 111.351
rwrist -33.8592
rhand 8.68054 8.42725
rfingers 7.12502
rthumb 33.8738 -18.3844
lclavicle 1.11319e-014 8.94531e-016
lhumerus -73.5221 -67.1432 115.133
lradius 110.115
lwrist 34.2893
lhand -4.10683 -12.5124
lfingers 7.12502
lthumb 21.6514 736.297
rfemur -192.009 -166.485 189.911
rtibia 31.1943
rfoot 15.0249 9.43751
rtoes -8.93552
lfemur 180.008 177.616 162.467
ltibia 19.6549
lfoot 9.7728 6.19865
ltoes -12.9922
680
root -0.166425 1.63417 10.3044 -2433.61 -2.17233 181.98
lowerback 1.52068 1.81958 -3.89268
upperback 3.84288 2.2108 -3.82144
thorax 3.10545 0.901016 -1.74235
lowerneck -17.7821 -4.73566 -0.399563
upperneck 10.7115 -6.70618 3.62025
head 6.28928 -2.86235 0.531627
rclavicle 2.38542e-015 -4.07509e-015
rhumerus -428.056 51.544 253.751
rradius 111.353
rwrist -33.985
rhand 8.71064 8.40028
rfingers 7.12502
rthumb 33.9024 -18.4051
lclavicle 2.38542e-015 -4.07509e-015
lhumerus -73.501 -67.1401 115.085
lradius 110.109
lwrist 34.257
lhand -4.1116 -12.5381
lfingers 7.12502
lthumb 21.6468 736.272
rfemur -191.899 -166.419 189.805
rtibia 30.9647
rfoot 15.0174 9.48471
rtoes -8.63274
lfemur 179.822 177.593 162.392
ltibia 19.7705
lfoot 9.64888 6.44685
ltoes -13.3233
681
root -0.165173 1.63423 10.3031 -2433.48 -2.23174 182.01
lowerback 1.40336 1.79598 -3.93607
upperback 3.79792 2.18736 -3.86456
thorax 3.12515 0.889513 -1.76018
lowerneck -17.7915 -4.73994 -0.399764
upperneck 10.737 -6.71635 3.64784
head 6.30035 -2.86359 0.538893
rclavicle -1.66979e-014 9.74045e-015
rhumerus -428.047 51.5439 253.712
rradius 111.331
rwrist -34.1152
rhand 8.73319 8.39153
rfingers 7.12502
rthumb 33.9238 -18.4091
lclavicle -1.66979e-014 9.74045e-015
lhumerus -73.4977 -67.1197 115.026
lradius 110.102
lwrist 34.2288
lhand -4.03664 -12.5739
lfingers 7.12502
lthumb 21.7188 736.228
rfemur -191.803 -166.38 189.72
rtibia 30.7476
rfoot 15.0173 9.49459
rtoes -8.29821
lfemur 179.62 177.508 162.348
ltibia 19.887
lfoot 9.57461 6.60849
ltoes -13.7857
682
root -0.164073 1.63329 10.3025 -2433.38 -2.27951 182.058
lowerback 1.30916 1.7654 -3.97305
upperback 3.77158 2.1538 -3.89733
thorax 3.15093 0.872752 -1.77158
lowerneck -17.814 -4.73441 -0.399716
upperneck 10.7361 -6.71032 3.65923
head 6.30409 -2.85929 0.5427
rclavicle -1.19271e-014 -1.82882e-014
rhumerus -428.012 51.5584 253.713
rradius 111.327
rwrist -34.2473
rhand 8.73607 8.37525
rfingers 7.12502
rthumb 33.9266 -18.4248
lclavicle -1.19271e-014 -1.82882e-014
lhumerus -73.4627 -67.0819 114.94
lradius 110.101
lwrist 34.2256
lhand -3.99005 -12.618
lfingers 7.12502
lthumb 21.7635 736.178
rfemur -191.685 -166.38 189.643
rtibia 30.5471
rfoot 14.9228 9.46444
rtoes -8.17262
lfemur 179.443 177.489 162.308
ltibia 20.0004
lfoot 9.47401 6.81528
ltoes -14.1495
683
root -0.163211 1.63267 10.3019 -2433.26 -2.35425 182.096
lowerback 1.20328 1.74261 -4.0494
upperback 3.74028 2.13137 -3.91989
thorax 3.17642 0.860259 -1.75017
lowerneck -17.8666 -4.75211 -0.449042
upperneck 10.7865 -6.72797 3.67584
head 6.33153 -2.86666 0.552147
rclavicle 6.83819e-014 -3.13086e-014
rhumerus -428.008 51.56 253.72
rradius 111.325
rwrist -34.3112
rhand 8.75532 8.38873
rfingers 7.12502
rthumb 33.9449 -18.4073
lclavicle 6.83819e-014 -3.13086e-014
lhumerus -73.4263 -67.0648 114.892
lradius 110.1
lwrist 34.2268
lhand -3.96665 -12.6406
lfingers 7.12502
lthumb 21.786 736.153
rfemur -191.589 -166.353 189.536
rtibia 30.3638
rfoot 14.8619 9.44547
rtoes -8.12482
lfemur 179.261 177.419 162.243
ltibia 20.1035
lfoot 9.39443 7.02971
ltoes -14.2605
684
root -0.161674 1.63185 10.301 -2433.17 -2.41652 182.143
lowerback 1.11683 1.71287 -4.10597
upperback 3.71465 2.09819 -3.9546
thorax 3.19804 0.842874 -1.75305
lowerneck -17.8915 -4.74983 -0.447017
upperneck 10.7988 -6.72658 3.67999
head 6.33966 -2.86486 0.552636
rclavicle 1.59028e-014 -5.48646e-014
rhumerus -427.977 51.5838 253.715
rradius 111.315
rwrist -34.3925
rhand 8.76001 8.39943
rfingers 7.12502
rthumb 33.9493 -18.3956
lclavicle 1.59028e-014 -5.48646e-014
lhumerus -73.367 -67.0323 114.787
lradius 110.094
lwrist 34.2496
lhand -3.91128 -12.6507
lfingers 7.12502
lthumb 21.8392 736.137
rfemur -191.479 -166.328 189.439
rtibia 30.1961
rfoot 14.7409 9.39821
rtoes -8.2386
lfemur 179.109 177.387 162.189
ltibia 20.1875
lfoot 9.30142 7.2721
ltoes -14.1691
685
root -0.160848 1.63115 10.3001 -2433.08 -2.47662 182.181
lowerback 1.03472 1.68652 -4.16537
upperback 3.69115 2.0696 -3.97746
thorax 3.2189 0.827672 -1.74218
lowerneck -17.8989 -4.75329 -0.473726
upperneck 10.7849 -6.72849 3.71299
head 6.33863 -2.86397 0.567164
rclavicle 4.13472e-014 -8.43841e-014
rhumerus -427.971 51.5987 253.705
rradius 111.319
rwrist -34.4199
rhand 8.7592 8.41799
rfingers 7.12502
rthumb 33.9486 -18.3772
lclavicle 4.13472e-014 -8.43841e-014
lhumerus -73.3031 -66.9949 114.699
lradius 110.103
lwrist 34.2423
lhand -3.8489 -12.6366
lfingers 7.12502
lthumb 21.8991 736.144
rfemur -191.365 -166.309 189.339
rtibia 30.0459
rfoot 14.5723 9.32404
rtoes -8.59549
lfemur 178.972 177.393 162.129
ltibia 20.2607
lfoot 9.18616 7.57511
ltoes -14.0596
686
root -0.159491 1.63088 10.3001 -2432.98 -2.54721 182.229
lowerback 0.945393 1.66083 -4.22877
upperback 3.66523 2.04208 -4.01005
thorax 3.2416 0.812772 -1.73906
lowerneck -17.9408 -4.75596 -0.488509
upperneck 10.8195 -6.73123 3.71689
head 6.35732 -2.86431 0.569147
rclavicle 2.70347e-014 -1.46107e-014
rhumerus -427.955 51.6029 253.696
rradius 111.314
rwrist -34.4573
rhand 8.74567 8.44273
rfingers 7.12502
rthumb 33.9357 -18.3553
lclavicle 2.70347e-014 -1.46107e-014
lhumerus -73.262 -66.9865 114.617
lradius 110.104
lwrist 34.2879
lhand -3.8102 -12.6926
lfingers 7.12502
lthumb 21.9362 736.084
rfemur -191.263 -166.289 189.231
rtibia 29.9039
rfoot 14.3846 9.22191
rtoes -9.13889
lfemur 178.832 177.354 162.07
ltibia 20.3203
lfoot 9.07974 7.82143
ltoes -13.9441
687
root -0.159289 1.63048 10.3001 -2432.9 -2.59369 182.277
lowerback 0.871617 1.63593 -4.26604
upperback 3.6431 2.01479 -4.03635
thorax 3.26012 0.798865 -1.74436
lowerneck -17.9722 -4.76415 -0.506661
upperneck 10.8455 -6.74218 3.73891
head 6.37255 -2.86709 0.576902
rclavicle -1.90833e-014 3.77691e-015
rhumerus -427.957 51.6098 253.667
rradius 111.304
rwrist -34.4844
rhand 8.71947 8.46545
rfingers 7.12502
rthumb 33.9108 -18.3381
lclavicle -1.90833e-014 3.77691e-015
lhumerus -73.1563 -66.9817 114.489
lradius 110.095
lwrist 34.3257
lhand -3.72942 -12.6958
lfingers 7.12502
lthumb 22.0138 736.071
rfemur -191.148 -166.206 189.136
rtibia 29.7731
rfoot 14.1972 9.11923
rtoes -9.67201
lfemur 178.716 177.372 162.022
ltibia 20.3702
lfoot 8.97303 8.10683
ltoes -13.9524
